<?xml version="1.0" encoding="UTF-8"?>
<!-- Generator: visioncortex VTracer 0.6.5 -->
<svg version="1.1" xmlns="http://www.w3.org/2000/svg" width="1150" height="1150">
<path d="M0 0 C1.8 1.83 1.94 3.12 2.54 5.56 C3.53 5.89 4.52 6.22 5.54 6.56 C6.91 8.66 8.05 10.65 9.16 12.88 C9.47 13.45 9.47 13.45 11.02 16.36 C14.9 25.51 13.68 37 13.67 46.74 C13.67 48.14 13.67 49.53 13.67 50.93 C13.67 54.74 13.67 58.55 13.67 62.36 C13.67 66.48 13.67 70.61 13.67 74.74 C13.68 82.85 13.68 90.95 13.67 99.06 C13.67 105.73 13.67 112.39 13.67 119.06 C13.67 120.01 13.67 120.97 13.67 121.95 C13.67 123.9 13.67 125.84 13.67 127.79 C13.68 146.08 13.67 164.38 13.67 182.67 C13.66 198.05 13.66 213.43 13.67 228.81 C13.68 281.27 13.66 333.72 13.55 386.18 C13.54 390.63 13.53 395.08 13.52 399.53 C13.49 418.28 13.44 437.04 13.34 455.79 C13.34 457.27 13.33 458.76 13.32 460.24 C13.32 460.96 13.31 461.69 13.31 462.44 C13.29 467.44 13.27 472.45 13.26 477.46 C13.25 484.03 13.21 490.6 13.17 497.17 C13.15 499.53 13.14 501.89 13.14 504.25 C13.14 518.43 12.64 530.63 5.71 543.36 C4.78 545.11 3.92 546.9 3.08 548.7 C-1.11 557.61 -6.26 564.95 -12.46 572.56 C-13.01 573.34 -13.56 574.12 -14.13 574.93 C-14.57 575.47 -15.01 576.01 -15.46 576.56 C-16.12 576.56 -16.78 576.56 -17.46 576.56 C-17.46 577.22 -17.46 577.88 -17.46 578.56 C-23.52 584.36 -30.99 588.4 -38.27 592.44 C-39.3 593.02 -40.32 593.6 -41.37 594.2 C-49.58 598.8 -49.58 598.8 -53.46 599.56 C-53.46 600.22 -53.46 600.88 -53.46 601.56 C-54.92 602.4 -56.38 603.23 -57.84 604.06 C-58.65 604.53 -59.46 604.99 -60.3 605.47 C-62.46 606.56 -62.46 606.56 -64.46 606.56 C-64.46 607.22 -64.46 607.88 -64.46 608.56 C-65.51 609.08 -66.56 609.6 -67.64 610.14 C-80.41 616.47 -80.41 616.47 -84.96 619.06 C-89.16 621.45 -93.46 623.64 -97.77 625.81 C-98.47 626.17 -99.16 626.52 -99.88 626.88 C-105.08 629.49 -105.08 629.49 -107.62 629.98 C-108.23 630.17 -108.84 630.36 -109.46 630.56 C-109.79 631.55 -110.12 632.54 -110.46 633.56 C-112.34 634.93 -112.34 634.93 -114.8 636.3 C-115.7 636.81 -116.6 637.32 -117.53 637.85 C-118 638.11 -118 638.11 -120.4 639.44 C-121.31 639.95 -122.23 640.47 -123.17 641 C-128.47 643.99 -133.84 646.8 -139.31 649.46 C-141.31 650.49 -143.19 651.6 -145.09 652.81 C-149.61 655.72 -154.31 658.31 -159.01 660.93 C-163.12 663.22 -167.19 665.58 -171.23 668 C-179.47 672.93 -187.87 677.54 -196.34 682.06 C-196.94 682.39 -197.55 682.71 -198.17 683.04 C-204.07 686.19 -209.98 689.32 -215.92 692.39 C-217.52 693.22 -219.11 694.05 -220.71 694.88 C-221.47 695.27 -222.22 695.66 -223 696.06 C-228.74 699.08 -234.17 702.5 -239.62 706.02 C-244.7 709.25 -249.9 711.61 -255.46 713.88 C-261.23 716.31 -266.34 719.46 -271.59 722.86 C-275.9 725.65 -280.27 728.09 -284.9 730.31 C-288.75 732.17 -292.34 734.04 -295.84 736.5 C-299.99 739.41 -304.38 741.67 -308.9 743.94 C-309.61 744.3 -310.32 744.65 -311.05 745.02 C-316.2 747.56 -316.2 747.56 -318.46 747.56 C-318.46 748.22 -318.46 748.88 -318.46 749.56 C-319.51 750.07 -320.56 750.58 -321.64 751.1 C-328.59 754.5 -335.31 757.87 -341.65 762.33 C-344.12 764.02 -346.78 765.25 -349.46 766.56 C-350.66 767.3 -351.84 768.05 -353.02 768.81 C-358.07 772.02 -363.35 774.79 -368.63 777.59 C-370.56 778.62 -372.49 779.65 -374.42 780.68 C-375.75 781.39 -377.07 782.1 -378.4 782.81 C-379.01 783.14 -379.63 783.47 -380.26 783.81 C-383.07 785.31 -385.88 786.77 -388.73 788.19 C-391.46 789.56 -391.46 789.56 -394.21 791.25 C-396.46 792.56 -396.46 792.56 -398.46 792.56 C-398.46 793.22 -398.46 793.88 -398.46 794.56 C-399.62 795.14 -400.77 795.71 -401.96 796.31 C-404.79 797.72 -407.61 799.15 -410.43 800.6 C-434.08 812.72 -434.08 812.72 -446.71 809.81 C-447.33 809.61 -447.33 809.61 -450.46 808.56 C-451.6 808.25 -452.73 807.94 -453.9 807.62 C-459.9 804.91 -464.7 798.31 -467.44 792.48 C-468 790.49 -468.23 788.62 -468.46 786.56 C-468.55 785.8 -468.64 785.03 -468.73 784.24 C-469.6 775.29 -469.58 766.37 -469.54 757.38 C-469.52 754.47 -469.52 751.55 -469.51 748.63 C-469.5 741.36 -469.48 734.08 -469.45 726.8 C-469.43 719.7 -469.41 712.59 -469.4 705.49 C-469.4 704.46 -469.4 703.43 -469.39 702.38 C-469.38 688.22 -469.56 674.09 -469.91 659.94 C-470.6 632.26 -470.38 604.6 -470.11 576.91 C-469.95 561.04 -469.82 545.18 -469.7 529.31 C-469.7 528.46 -469.69 527.61 -469.68 526.73 C-469.45 495.45 -469.45 464.17 -469.52 432.89 C-469.54 426.95 -469.55 421 -469.56 415.06 C-469.57 410.31 -469.57 405.57 -469.58 400.82 C-469.59 399.65 -469.59 398.47 -469.59 397.26 C-469.62 383.16 -469.66 369.06 -469.72 354.95 C-469.76 346.01 -469.78 337.07 -469.8 328.13 C-469.81 321.93 -469.83 315.72 -469.87 309.51 C-469.89 305.69 -469.9 301.87 -469.9 298.04 C-469.9 296.3 -469.91 294.56 -469.92 292.82 C-470.06 278.99 -469.09 264.97 -462.46 252.56 C-462 251.01 -461.58 249.45 -461.21 247.88 C-458.17 237.28 -450.76 228.03 -442.3 221.15 C-440.46 219.56 -440.46 219.56 -438.21 217.18 C-435.04 214.16 -431.74 211.96 -428.02 209.69 C-427.32 209.25 -426.62 208.82 -425.9 208.37 C-420.35 204.99 -414.67 202.1 -408.82 199.27 C-404.3 196.97 -400.05 194.31 -395.76 191.61 C-392.26 189.44 -388.72 187.36 -385.15 185.31 C-384.06 184.69 -382.97 184.06 -381.85 183.42 C-379.46 182.11 -377.09 180.87 -374.65 179.68 C-369.02 176.9 -363.66 173.65 -358.26 170.45 C-354.39 168.18 -350.67 166.14 -346.46 164.56 C-345.47 163.9 -344.48 163.24 -343.46 162.56 C-342.47 162.56 -341.48 162.56 -340.46 162.56 C-340.46 161.9 -340.46 161.24 -340.46 160.56 C-339.81 160.23 -339.16 159.9 -338.49 159.56 C-335.5 158.02 -332.51 156.48 -329.52 154.94 C-328.5 154.42 -327.48 153.89 -326.43 153.36 C-320.91 150.5 -315.71 147.48 -310.59 143.96 C-307.06 141.64 -303.3 139.78 -299.52 137.88 C-292.85 134.44 -286.39 130.79 -280.02 126.81 C-274.23 123.2 -268.42 119.91 -262.25 116.95 C-259.23 115.45 -256.36 113.78 -253.46 112.06 C-249.57 109.75 -245.65 107.62 -241.59 105.62 C-228.15 99.02 -215.41 91.05 -202.84 82.94 C-195.32 78.15 -187.51 74.07 -179.52 70.12 C-173.99 67.39 -168.69 64.4 -163.39 61.24 C-160.48 59.57 -157.54 58.09 -154.52 56.62 C-147.03 52.95 -140.04 48.49 -133.02 44 C-127.11 40.31 -120.96 37.42 -114.64 34.53 C-109.99 32.37 -105.81 29.99 -101.64 27 C-98.1 24.67 -94.28 22.94 -90.45 21.15 C-88.11 19.91 -86.18 18.68 -84.07 17.12 C-80.52 14.51 -76.81 12.63 -72.84 10.75 C-67.58 8.21 -62.58 5.5 -57.65 2.38 C-39.21 -9.21 -18.93 -13.05 0 0 Z " fill="#509F50" transform="translate(1055.4609375,313.4375)"/>
<path d="M0 0 C3.4 1.93 6.75 3.43 10.36 4.9 C10.36 5.56 10.36 6.22 10.36 6.9 C10.94 7.03 11.52 7.15 12.11 7.28 C14.39 7.91 16.24 8.76 18.33 9.86 C19.06 10.25 19.8 10.64 20.56 11.04 C21.32 11.45 22.08 11.86 22.86 12.28 C23.62 12.68 24.38 13.08 25.16 13.49 C28.78 15.42 32.11 17.38 35.36 19.9 C41.45 23.47 47.77 26.63 54.09 29.75 C56.06 30.75 57.96 31.79 59.86 32.9 C64.24 35.46 68.81 37.66 73.36 39.9 C74.57 40.51 75.78 41.11 76.98 41.71 C77.77 42.11 78.55 42.5 79.36 42.9 C79.36 43.56 79.36 44.22 79.36 44.9 C80.09 45.18 80.81 45.45 81.56 45.73 C84.25 46.86 86.62 48.14 89.11 49.65 C89.99 50.19 90.87 50.72 91.78 51.27 C94.05 52.71 96.23 54.22 98.42 55.78 C103.37 59.14 108.72 61.55 114.16 64.01 C118.1 65.8 121.87 67.72 125.6 69.91 C128.74 71.68 132 73.21 135.23 74.78 C140.7 77.46 145.82 80.29 150.76 83.87 C152.36 84.9 152.36 84.9 154.36 84.9 C154.36 85.56 154.36 86.22 154.36 86.9 C154.72 87.04 154.72 87.04 156.54 87.72 C159.36 88.9 161.86 90.29 164.48 91.87 C165.44 92.44 166.39 93.01 167.38 93.6 C169.36 94.8 171.35 96 173.34 97.2 C174.3 97.77 175.25 98.35 176.23 98.93 C176.67 99.19 176.67 99.19 178.85 100.51 C181.3 101.87 183.74 102.9 186.36 103.9 C187.75 104.63 189.12 105.38 190.48 106.15 C194.94 108.68 199.45 111.09 203.98 113.47 C206.17 114.79 207.6 116.09 209.36 117.9 C212.01 119.3 214.66 120.61 217.36 121.9 C219.61 123.02 221.86 124.15 224.11 125.28 C225.32 125.88 226.52 126.48 227.73 127.09 C230.33 128.39 230.33 128.39 243.36 134.9 C243.36 135.56 243.36 136.22 243.36 136.9 C243.94 137.01 244.52 137.11 245.12 137.22 C247.68 138 249.11 139.09 251.17 140.78 C254.72 143.54 258.18 145.2 262.36 146.9 C263.27 147.52 264.17 148.14 265.11 148.78 C267.99 150.66 270.66 151.97 273.8 153.34 C277.81 155.11 281.13 157.04 284.59 159.7 C287.91 161.96 291.65 163.4 295.36 164.9 C295.36 165.56 295.36 166.22 295.36 166.9 C296.68 166.9 298 166.9 299.36 166.9 C299.36 167.56 299.36 168.22 299.36 168.9 C299.92 169.06 300.47 169.22 301.05 169.38 C306.6 171.08 311.83 173.16 316.36 176.9 C316.36 177.56 316.36 178.22 316.36 178.9 C318.98 180.23 321.62 181.51 324.29 182.74 C325.02 183.08 325.76 183.42 326.51 183.78 C328.03 184.48 329.55 185.19 331.07 185.89 C334.97 187.71 338.72 189.6 342.36 191.9 C348.23 195.58 353.77 198.71 360.36 200.9 C360.36 201.56 360.36 202.22 360.36 202.9 C361.24 203.13 362.11 203.36 363.02 203.6 C366.83 205.08 368.92 206.9 371.86 209.71 C377.73 215.27 377.73 215.27 380.67 217.53 C384.16 220.61 386.68 224.12 389.36 227.9 C389.91 228.6 390.47 229.3 391.04 230.02 C392.36 231.9 392.36 231.9 392.36 233.9 C393.02 233.9 393.68 233.9 394.36 233.9 C404.14 254.12 407.85 272.72 407.68 294.99 C407.68 296.83 407.68 298.68 407.68 300.52 C407.68 304.46 407.67 308.4 407.65 312.34 C407.61 318.58 407.6 324.83 407.6 331.07 C407.58 340.96 407.55 350.84 407.52 360.73 C407.46 378.42 407.42 396.1 407.39 413.78 C407.38 419.97 407.36 426.16 407.33 432.35 C407.32 436.22 407.31 440.09 407.3 443.96 C407.3 445.74 407.29 447.51 407.28 449.28 C407.24 457.94 407.34 466.53 407.89 475.17 C408.39 483.1 408.29 490.92 407.93 498.86 C407.82 501.66 407.72 504.46 407.63 507.26 C407.6 507.98 407.58 508.69 407.55 509.42 C407.3 517.19 407.24 524.96 407.23 532.74 C407.23 533.45 407.23 534.16 407.23 534.89 C407.22 539.34 407.22 543.8 407.23 548.25 C407.23 552.24 407.23 556.24 407.22 560.24 C407.22 566.93 407.22 573.63 407.23 580.33 C407.23 587.98 407.23 595.63 407.23 603.28 C407.22 609.95 407.22 616.62 407.22 623.3 C407.23 627.23 407.23 631.17 407.22 635.11 C407.21 652.99 407.45 670.83 408.13 688.69 C408.41 695.95 408.51 703.2 408.48 710.46 C408.48 711.71 408.48 712.95 408.48 714.23 C408.44 722.07 408.19 729.87 407.71 737.69 C407.41 743.11 407.34 748.5 407.4 753.92 C407.4 754.63 407.41 755.33 407.42 756.06 C407.45 759.58 407.5 763.11 407.57 766.63 C407.7 777.71 406.84 787.3 399.34 795.89 C398.68 796.55 398.03 797.22 397.36 797.9 C396.77 798.53 396.18 799.15 395.57 799.79 C388.86 805.52 379.99 804.86 371.62 804.23 C364.93 803.26 358.98 799.83 353.11 796.65 C352.37 796.26 351.63 795.86 350.88 795.46 C343.18 791.31 335.6 786.99 328.23 782.28 C324.78 780.1 321.22 778.29 317.55 776.49 C313.17 774.31 308.82 772.05 304.48 769.78 C304.07 769.56 304.07 769.56 301.96 768.47 C301.17 768.05 300.37 767.64 299.55 767.21 C298.84 766.84 298.13 766.46 297.4 766.08 C295.25 764.84 293.33 763.42 291.36 761.9 C289.98 761.08 288.58 760.29 287.17 759.53 C286.38 759.1 285.59 758.66 284.78 758.22 C283.98 757.78 283.18 757.35 282.36 756.9 C280.9 756.09 279.44 755.28 277.98 754.46 C276.44 753.61 274.9 752.76 273.36 751.9 C272.89 751.64 272.89 751.64 270.52 750.32 C269.56 749.79 268.6 749.26 267.61 748.71 C267.17 748.47 267.17 748.47 264.94 747.23 C262.46 745.95 259.97 744.89 257.36 743.9 C257.36 743.24 257.36 742.58 257.36 741.9 C256.63 741.62 255.89 741.33 255.14 741.04 C245.77 737.22 237.09 731.96 228.36 726.9 C218.39 721.18 208.37 715.55 198.36 709.9 C197.55 709.45 196.74 708.99 195.91 708.52 C186.77 703.36 177.61 698.25 168.36 693.3 C157.87 687.68 147.37 682.02 137.23 675.78 C132.81 673.08 128.2 670.79 123.55 668.52 C119.03 666.29 114.73 663.81 110.45 661.16 C108.36 659.9 108.36 659.9 105.42 658.46 C102.43 656.94 99.69 655.22 96.86 653.4 C92.45 650.56 88.03 648.14 83.27 645.93 C77.34 643.09 71.89 639.78 66.45 636.11 C62.56 633.53 58.64 631.72 54.36 629.9 C52.04 628.56 49.76 627.2 47.48 625.78 C39.88 621.12 32.06 616.97 24.16 612.85 C17.44 609.32 10.9 605.49 4.35 601.65 C-3.08 597.31 -10.61 593.17 -18.17 589.06 C-22.89 586.47 -27.52 583.8 -32.05 580.9 C-33.64 579.9 -33.64 579.9 -35.64 578.9 C-35.64 578.24 -35.64 577.58 -35.64 576.9 C-36.18 576.68 -36.71 576.45 -37.27 576.21 C-53.54 567.22 -63.45 545.37 -68.95 528.34 C-70.45 522.48 -71.2 516.73 -71.73 510.71 C-71.82 509.75 -71.9 508.78 -71.99 507.79 C-72.8 498.02 -72.92 488.31 -72.89 478.51 C-72.9 476.57 -72.9 474.62 -72.9 472.67 C-72.91 467.39 -72.91 462.11 -72.9 456.83 C-72.9 451.11 -72.9 445.39 -72.91 439.67 C-72.92 428.49 -72.92 417.31 -72.91 406.14 C-72.91 397.05 -72.91 387.96 -72.91 378.87 C-72.91 377.58 -72.91 376.28 -72.91 374.94 C-72.91 372.31 -72.91 369.67 -72.91 367.04 C-72.92 343.08 -72.91 319.12 -72.9 295.16 C-72.89 273.31 -72.89 251.47 -72.9 229.63 C-72.91 205.04 -72.92 180.45 -72.91 155.86 C-72.91 153.24 -72.91 150.62 -72.91 147.99 C-72.91 146.7 -72.91 145.41 -72.91 144.08 C-72.91 135.01 -72.91 125.93 -72.91 116.86 C-72.92 105.8 -72.92 94.74 -72.91 83.68 C-72.9 78.04 -72.9 72.4 -72.91 66.76 C-72.91 61.59 -72.91 56.42 -72.9 51.26 C-72.9 49.39 -72.9 47.53 -72.9 45.67 C-72.97 15.67 -72.97 15.67 -66.45 6.34 C-66.25 6.05 -66.25 6.05 -65.25 4.59 C-62.16 0.26 -58.93 -2.99 -54.64 -6.1 C-54.05 -6.61 -53.45 -7.13 -52.84 -7.66 C-36.98 -18.02 -14.28 -8.57 0 0 Z " fill="#308FDF" transform="translate(163.640625,318.09765625)"/>
<path d="M0 0 C0.62 -0.01 0.62 -0.01 3.75 -0.05 C15.3 -0.05 25.3 2.19 35.62 7.31 C36.88 7.92 38.13 8.53 39.39 9.14 C46.05 12.39 52.54 15.76 58.84 19.66 C62.69 21.94 66.62 24.03 70.56 26.12 C71.31 26.52 72.06 26.92 72.83 27.33 C73.53 27.7 74.24 28.07 74.96 28.46 C75.6 28.79 76.23 29.12 76.88 29.47 C78.62 30.31 78.62 30.31 81.62 31.31 C81.62 31.97 81.62 32.63 81.62 33.31 C82.44 33.54 83.25 33.76 84.08 34 C88.5 35.64 92.3 37.93 96.31 40.38 C97.81 41.29 99.32 42.19 100.82 43.1 C101.48 43.5 102.14 43.9 102.82 44.31 C104.62 45.31 104.62 45.31 107.62 46.31 C107.62 46.97 107.62 47.63 107.62 48.31 C108.05 48.44 108.05 48.44 110.22 49.1 C113.74 50.35 116.85 51.9 120.12 53.69 C121.21 54.27 122.29 54.86 123.41 55.46 C126.58 57.29 129.58 59.28 132.62 61.31 C138.83 64.89 145.2 68.16 151.62 71.31 C153.13 72.06 154.63 72.81 156.12 73.56 C156.7 73.85 156.7 73.85 159.62 75.31 C159.62 75.97 159.62 76.63 159.62 77.31 C160.14 77.4 160.66 77.49 161.2 77.57 C164.56 78.6 167.42 80.36 170.44 82.12 C177.34 86.09 184.36 89.8 191.44 93.44 C198.2 96.93 204.79 100.47 211.13 104.68 C220.3 110.67 230.1 115.63 239.8 120.67 C245.01 123.39 249.94 126.37 254.84 129.61 C258.25 131.7 261.78 133.44 265.38 135.19 C271.44 138.14 277.23 141.37 282.99 144.89 C290.09 149.23 297.35 153.27 304.62 157.31 C306.08 158.12 307.54 158.94 309 159.75 C315.08 163.13 321.15 166.5 327.24 169.85 C335.13 174.2 342.93 178.65 350.62 183.33 C354.87 185.9 359.16 188.16 363.62 190.31 C365.29 191.31 366.96 192.31 368.62 193.31 C371.43 194.89 374.25 196.45 377.06 198 C388.09 204.11 399.03 210.34 409.89 216.74 C412.31 218.13 414.76 219.41 417.25 220.69 C424.95 224.98 432.01 230.74 435.07 239.21 C437.06 246.75 434.82 254.38 431.62 261.31 C427.74 266.07 422.98 269.38 417.54 272.2 C415.04 273.65 412.85 275.42 410.56 277.19 C405.4 281.01 400.18 283.36 394.25 285.75 C389.82 287.66 385.75 289.98 381.59 292.42 C377.57 294.78 373.49 296.93 369.3 298.98 C359.88 303.66 350.79 308.74 341.86 314.31 C332.93 319.84 323.8 324.8 314.39 329.45 C305.74 333.73 297.47 338.36 289.36 343.6 C285.85 345.8 282.24 347.76 278.59 349.71 C274.03 352.18 269.56 354.79 265.08 357.38 C262 359.1 258.89 360.69 255.72 362.25 C252.01 364.13 248.38 366.16 244.75 368.19 C243.96 368.63 243.16 369.07 242.34 369.53 C237.57 372.19 232.86 374.95 228.2 377.81 C224.14 380.18 219.97 382.35 215.8 384.51 C213.17 385.88 210.72 387.24 208.37 389.05 C206.62 390.31 206.62 390.31 203.62 390.31 C203.62 390.97 203.62 391.63 203.62 392.31 C201.33 393.89 199.14 395.13 196.51 396.06 C192.29 397.89 188.51 400.37 184.62 402.81 C175.36 408.63 175.36 408.63 170.62 410.31 C163.53 413.51 156.9 417.47 150.23 421.44 C145.51 424.24 140.74 426.9 135.88 429.44 C130 432.51 124.35 435.87 118.73 439.38 C110.41 444.56 101.95 449.26 93.14 453.56 C90.28 454.96 87.5 456.39 84.78 458.05 C82.62 459.31 82.62 459.31 80.62 459.31 C80.62 459.97 80.62 460.63 80.62 461.31 C79.64 461.79 78.66 462.26 77.65 462.75 C70.52 466.23 63.57 469.83 56.81 474 C50.94 477.61 45 480.65 38.62 483.31 C37.56 483.81 36.5 484.3 35.41 484.81 C13.93 493.98 -11.11 491.16 -32.81 484.38 C-35.38 483.31 -37.2 482.03 -39.38 480.31 C-41 479.62 -42.62 478.93 -44.25 478.26 C-49.85 475.77 -55.3 472.77 -60.31 469.25 C-65.03 466.26 -70.19 464.36 -75.38 462.31 C-75.38 461.65 -75.38 460.99 -75.38 460.31 C-75.97 460.17 -76.57 460.02 -77.19 459.88 C-78.94 459.43 -80.66 458.88 -82.38 458.31 C-82.38 457.65 -82.38 456.99 -82.38 456.31 C-83.05 456.06 -83.72 455.81 -84.42 455.55 C-87.96 454.06 -91.31 452.27 -94.69 450.44 C-98.64 448.3 -102.57 446.18 -106.62 444.25 C-109.64 442.77 -112.38 441.03 -115.19 439.19 C-122.57 434.4 -130.41 430.48 -138.22 426.43 C-145.73 422.52 -153.08 418.36 -160.36 414.02 C-162.59 412.76 -164.8 411.6 -167.11 410.48 C-172.08 408.03 -176.77 405.14 -181.5 402.25 C-186.72 399.07 -191.89 396.02 -197.38 393.31 C-199.43 392.06 -201.47 390.79 -203.5 389.5 C-209.61 385.7 -215.87 382.41 -222.38 379.31 C-222.38 378.65 -222.38 377.99 -222.38 377.31 C-222.94 377.19 -223.51 377.07 -224.1 376.95 C-234.95 373.93 -245.86 366.66 -255.3 360.62 C-261.79 356.53 -268.41 352.73 -275.31 349.38 C-280.7 346.73 -285.75 343.7 -290.84 340.52 C-302.09 333.48 -313.54 327.02 -325.49 321.23 C-328.8 319.62 -332.08 317.96 -335.38 316.31 C-335.38 315.65 -335.38 314.99 -335.38 314.31 C-335.78 314.2 -335.78 314.2 -337.83 313.62 C-342.24 311.99 -346.04 309.73 -350.06 307.31 C-356.71 303.39 -363.41 299.63 -370.25 296.06 C-370.65 295.85 -370.65 295.85 -372.66 294.8 C-376.08 293.02 -379.5 291.25 -382.93 289.48 C-389.5 286.05 -395.59 282.21 -401.69 278.03 C-407.95 273.79 -414.53 270.5 -421.38 267.31 C-421.38 266.65 -421.38 265.99 -421.38 265.31 C-421.67 265.2 -421.67 265.2 -423.19 264.62 C-425.99 262.95 -426.87 261.18 -428.38 258.31 C-428.72 257.74 -429.06 257.16 -429.41 256.57 C-432.01 250.48 -432.36 241.95 -430.19 235.69 C-428.51 232.57 -427.16 230.47 -424.38 228.31 C-423.72 228.31 -423.06 228.31 -422.38 228.31 C-422.38 227.65 -422.38 226.99 -422.38 226.31 C-421.74 225.96 -421.1 225.6 -420.44 225.23 C-417.48 223.57 -414.52 221.91 -411.56 220.25 C-410.56 219.69 -409.55 219.13 -408.52 218.55 C-402.51 215.17 -396.63 211.64 -390.85 207.87 C-387.49 205.76 -384.01 203.9 -380.5 202.04 C-377.41 200.33 -374.39 198.55 -371.36 196.74 C-364.49 192.62 -357.57 188.85 -350.36 185.37 C-344.45 182.47 -338.93 179.05 -333.43 175.46 C-328.56 172.31 -328.56 172.31 -326.38 172.31 C-326.38 171.65 -326.38 170.99 -326.38 170.31 C-325.06 170.31 -323.74 170.31 -322.38 170.31 C-322.38 169.65 -322.38 168.99 -322.38 168.31 C-321.37 167.82 -320.37 167.32 -319.33 166.81 C-309.19 161.78 -299.08 156.69 -289.31 150.94 C-286.9 149.6 -285.07 148.74 -282.38 148.31 C-282.38 147.65 -282.38 146.99 -282.38 146.31 C-275.3 142.42 -268.17 138.62 -261.02 134.86 C-255.07 131.72 -249.2 128.43 -243.38 125.06 C-238.59 122.31 -238.59 122.31 -236.38 122.31 C-236.38 121.65 -236.38 120.99 -236.38 120.31 C-235.39 119.84 -234.41 119.37 -233.4 118.88 C-226.15 115.34 -219.04 111.66 -212.12 107.5 C-211.51 107.13 -210.89 106.76 -210.25 106.37 C-207.78 104.86 -205.41 103.34 -203.14 101.55 C-201.38 100.31 -201.38 100.31 -198.38 100.31 C-198.38 99.65 -198.38 98.99 -198.38 98.31 C-196.81 97.52 -195.25 96.73 -193.69 95.94 C-192.82 95.5 -191.95 95.06 -191.05 94.6 C-184.22 91.31 -184.22 91.31 -180.38 91.31 C-180.38 90.65 -180.38 89.99 -180.38 89.31 C-179.68 88.94 -178.98 88.57 -178.27 88.18 C-175.09 86.48 -171.92 84.77 -168.75 83.06 C-167.66 82.48 -166.56 81.89 -165.43 81.29 C-160.25 78.49 -155.23 75.64 -150.38 72.31 C-148.07 71.26 -145.73 70.26 -143.38 69.31 C-142.89 69.12 -142.89 69.12 -140.44 68.12 C-139.76 67.86 -139.08 67.59 -138.38 67.31 C-138.38 66.65 -138.38 65.99 -138.38 65.31 C-115.99 52.31 -115.99 52.31 -111.38 52.31 C-111.38 51.65 -111.38 50.99 -111.38 50.31 C-110.78 50.02 -110.19 49.73 -109.57 49.43 C-103.9 46.62 -98.33 43.67 -92.82 40.55 C-90.64 39.44 -88.76 38.78 -86.38 38.31 C-86.38 37.65 -86.38 36.99 -86.38 36.31 C-85.81 36.01 -85.25 35.7 -84.67 35.38 C-82.07 33.97 -79.47 32.55 -76.88 31.12 C-75.99 30.64 -75.1 30.16 -74.19 29.66 C-69.42 27.05 -64.77 24.34 -60.18 21.42 C-57.57 19.82 -54.87 18.47 -52.12 17.12 C-51.13 16.64 -50.13 16.15 -49.11 15.64 C-48.21 15.2 -47.3 14.77 -46.38 14.31 C-45.04 13.65 -43.71 12.98 -42.38 12.31 C-42.38 11.65 -42.38 10.99 -42.38 10.31 C-38.14 8.12 -33.9 6.04 -29.5 4.19 C-28.76 3.88 -28.02 3.56 -27.26 3.24 C-18.22 0.33 -9.45 -0.02 0 0 Z " fill="#EF7F20" transform="translate(577.375,31.6875)"/>
<path d="M0 0 C10.86 5.22 21.33 10.96 31.76 16.98 C36.56 19.76 41.4 22.45 46.25 25.12 C53.64 29.21 60.95 33.42 68.2 37.76 C70.5 39.13 72.8 40.42 75.18 41.68 C76.07 42.16 76.96 42.63 77.88 43.12 C78.61 43.5 79.35 43.87 80.12 44.26 C84.76 48.55 86.1 57.39 87.9 63.37 C88.03 63.82 88.03 63.82 88.72 66.08 C89.61 69.01 90.49 71.94 91.38 74.88 C92.63 79.03 93.89 83.19 95.15 87.35 C95.47 88.4 95.79 89.46 96.12 90.54 C98.24 97.54 100.39 104.52 102.57 111.5 C102.85 112.41 103.13 113.32 103.43 114.25 C103.99 116.06 104.55 117.86 105.11 119.66 C109.17 132.67 113.18 145.68 116.73 158.84 C118.49 165.35 120.47 171.78 122.49 178.2 C124.28 183.87 126.03 189.55 127.79 195.22 C128.13 196.33 128.47 197.43 128.82 198.56 C129.9 202.06 130.98 205.56 132.06 209.06 C132.82 211.5 133.57 213.95 134.33 216.39 C137.78 227.57 141.24 238.76 144.68 249.96 C144.95 250.86 145.23 251.76 145.52 252.69 C146.79 256.84 148.06 260.99 149.33 265.13 C151.47 272.12 153.64 279.08 156 286 C156.3 285.27 156.6 284.54 156.91 283.78 C162.54 270.11 168.2 256.45 174.06 242.88 C177.98 233.79 181.79 224.67 185.5 215.5 C190.19 203.9 195.08 192.4 200.03 180.91 C202.44 175.31 204.83 169.68 207.2 164.05 C208.99 159.79 210.8 155.54 212.61 151.28 C213.57 149.01 214.53 146.73 215.48 144.45 C216.95 140.94 218.44 137.44 219.94 133.94 C220.39 132.85 220.83 131.77 221.3 130.65 C221.72 129.66 222.15 128.67 222.59 127.65 C222.96 126.78 223.33 125.9 223.71 125 C225 123 225 123 226.8 122.03 C230.03 121.99 231.86 123.27 234.64 124.91 C235.76 125.56 236.88 126.22 238.04 126.89 C239.25 127.61 240.47 128.34 241.69 129.06 C242.95 129.8 244.21 130.54 245.47 131.27 C247.41 132.4 249.35 133.53 251.28 134.66 C257.45 138.28 263.69 141.77 269.94 145.25 C277.91 149.7 285.87 154.17 293.81 158.69 C294.68 159.18 295.56 159.67 296.45 160.18 C296.86 160.41 296.86 160.41 298.89 161.57 C299.59 161.97 300.29 162.37 301.01 162.78 C301.34 162.98 301.34 162.98 303 164 C303.69 164.41 304.38 164.83 305.09 165.26 C307 167 307 167 307.5 169.32 C307.5 170.24 307.49 171.17 307.49 172.12 C307.5 173.18 307.51 174.25 307.52 175.34 C307.5 176.52 307.49 177.69 307.48 178.9 C307.48 180.15 307.49 181.39 307.49 182.67 C307.5 186.13 307.48 189.59 307.46 193.05 C307.45 196.78 307.45 200.51 307.46 204.23 C307.46 210.69 307.45 217.16 307.42 223.62 C307.39 232.96 307.38 242.3 307.37 251.64 C307.37 266.8 307.34 281.95 307.3 297.11 C307.27 311.83 307.24 326.56 307.22 341.28 C307.22 342.19 307.22 343.1 307.22 344.03 C307.21 348.58 307.21 353.13 307.2 357.69 C307.16 395.46 307.09 433.23 307 471 C302.47 470.33 299.28 469.32 295.28 467.04 C294.19 466.43 293.11 465.82 291.99 465.19 C290.82 464.52 289.66 463.85 288.5 463.19 C286.69 462.16 284.88 461.14 283.08 460.12 C281.85 459.43 280.63 458.74 279.4 458.04 C272.63 454.2 265.77 450.52 258.89 446.86 C258.05 446.41 257.22 445.95 256.35 445.49 C255.63 445.1 254.9 444.72 254.16 444.32 C253.8 444.1 253.8 444.1 252 443 C251.14 442.48 250.29 441.97 249.41 441.43 C246.63 438.63 246.4 436.99 246.33 433.12 C246.34 432.33 246.35 431.55 246.36 430.74 C246.35 429.9 246.34 429.06 246.34 428.19 C246.31 425.37 246.33 422.55 246.34 419.73 C246.33 417.71 246.32 415.69 246.31 413.67 C246.28 408.18 246.28 402.69 246.29 397.2 C246.29 391.46 246.27 385.73 246.25 379.99 C246.21 369.13 246.2 358.27 246.19 347.41 C246.19 335.04 246.16 322.68 246.12 310.31 C246.05 284.88 246.01 259.44 246 234 C244.89 236.36 243.79 238.72 242.68 241.08 C242.53 241.41 242.53 241.41 241.75 243.08 C238.76 249.47 235.95 255.94 233.19 262.44 C232.67 263.65 232.16 264.85 231.62 266.1 C227.13 276.64 222.72 287.22 218.32 297.81 C215.89 303.67 213.45 309.52 211 315.38 C210.87 315.69 210.87 315.69 210.2 317.29 C206.66 325.74 203.08 334.17 199.45 342.58 C199.25 343.03 199.25 343.03 198.26 345.35 C196.32 349.83 194.39 354.31 192.44 358.79 C188.23 368.54 184.26 378.34 180.58 388.31 C180.27 389.14 179.96 389.97 179.64 390.83 C179.51 391.2 179.51 391.2 178.82 393.06 C178 395 178 395 176 398 C170.71 397.46 166.59 394.76 162.06 392.19 C156.39 388.98 150.73 385.83 144.9 382.92 C143.9 382.41 142.91 381.9 141.88 381.38 C139.96 380.39 138.02 379.44 136.07 378.5 C135.19 378.04 134.31 377.59 133.4 377.12 C132.62 376.73 131.84 376.35 131.04 375.95 C127.85 372.9 127.16 369.18 126 365 C125.54 363.49 125.08 361.97 124.61 360.46 C124.13 358.84 123.65 357.22 123.17 355.6 C123.04 355.15 123.04 355.15 122.37 352.89 C121.79 350.96 121.22 349.02 120.65 347.09 C119.09 341.85 117.53 336.6 115.97 331.36 C115.65 330.26 115.32 329.17 114.99 328.05 C111.4 315.99 107.8 303.93 104.19 291.88 C103.87 290.82 103.55 289.76 103.23 288.67 C99.56 276.42 95.84 264.19 92 252 C89.06 242.65 86.42 233.26 83.94 223.78 C80.63 211.32 76.83 199.01 73.06 186.69 C68.21 170.84 63.63 154.93 59 139 C58.67 203.02 58.34 267.04 58 333 C39.77 326.92 22.77 315 6.25 305.31 C5.89 305.1 5.89 305.1 4.06 304.03 C-0.88 301.12 -0.88 301.12 -2 300 C-2.1 298.41 -2.13 296.82 -2.13 295.23 C-2.13 294.19 -2.14 293.15 -2.14 292.08 C-2.14 290.93 -2.14 289.77 -2.13 288.58 C-2.14 287.36 -2.14 286.15 -2.14 284.89 C-2.15 281.5 -2.15 278.11 -2.15 274.72 C-2.15 271.07 -2.15 267.42 -2.16 263.76 C-2.16 256.6 -2.17 249.44 -2.17 242.28 C-2.17 236.47 -2.17 230.65 -2.17 224.83 C-2.18 208.36 -2.19 191.88 -2.19 175.41 C-2.19 174.52 -2.19 173.63 -2.19 172.72 C-2.19 171.82 -2.19 170.93 -2.19 170.02 C-2.18 155.59 -2.19 141.15 -2.21 126.72 C-2.22 111.92 -2.23 97.12 -2.23 82.32 C-2.23 74 -2.23 65.69 -2.24 57.37 C-2.25 50.29 -2.25 43.21 -2.25 36.13 C-2.24 32.51 -2.24 28.9 -2.25 25.28 C-2.26 21.37 -2.25 17.46 -2.25 13.55 C-2.25 12.39 -2.26 11.24 -2.26 10.05 C-2.26 9.01 -2.25 7.97 -2.25 6.9 C-2.25 5.99 -2.25 5.09 -2.25 4.16 C-2 2 -2 2 0 0 Z " fill="#FFFFFF" transform="translate(177,464)"/>
<path d="M0 0 C14.77 13.66 20.62 37.41 21.7 56.7 C23.33 104.07 6.44 151.97 -24.82 187.46 C-27.42 190.46 -27.42 190.46 -29.15 192.86 C-29.36 193.12 -29.36 193.12 -30.42 194.46 C-31.08 194.46 -31.74 194.46 -32.42 194.46 C-32.42 195.12 -32.42 195.78 -32.42 196.46 C-33.08 196.46 -33.74 196.46 -34.42 196.46 C-34.67 197.08 -34.92 197.7 -35.17 198.33 C-36.63 200.81 -37.8 201.41 -40.42 202.46 C-40.42 203.12 -40.42 203.78 -40.42 204.46 C-41.74 205.72 -41.74 205.72 -43.61 207.15 C-44.3 207.68 -44.99 208.2 -45.7 208.75 C-46.46 209.31 -47.21 209.88 -47.98 210.46 C-48.76 211.04 -49.53 211.63 -50.33 212.23 C-77.96 232.91 -108.85 248.8 -139.21 265.03 C-140.22 265.57 -141.23 266.11 -142.27 266.67 C-143.14 267.13 -144.02 267.6 -144.93 268.09 C-146.69 269.05 -148.41 270.08 -150.12 271.13 C-152.42 272.46 -152.42 272.46 -154.42 272.46 C-154.42 305.79 -154.42 339.12 -154.42 373.46 C-159.04 375.77 -163.66 378.08 -168.42 380.46 C-172.39 382.72 -176.32 385 -180.23 387.33 C-188.02 391.93 -195.84 396.37 -203.86 400.53 C-208.6 402.99 -213.2 405.63 -217.73 408.46 C-219.42 409.46 -219.42 409.46 -220.42 409.46 C-220.67 366.9 -220.87 324.34 -220.98 281.79 C-221 276.76 -221.01 271.74 -221.03 266.72 C-221.03 265.72 -221.03 264.72 -221.03 263.69 C-221.08 247.49 -221.17 231.29 -221.27 215.09 C-221.37 198.48 -221.43 181.86 -221.46 165.24 C-221.47 154.99 -221.52 144.73 -221.61 134.48 C-221.67 127.45 -221.68 120.42 -221.67 113.39 C-221.66 109.33 -221.67 105.27 -221.73 101.21 C-221.79 97.5 -221.79 93.78 -221.75 90.07 C-221.74 88.09 -221.79 86.11 -221.84 84.13 C-221.69 75.69 -221.69 75.69 -218.07 72.18 C-215.26 70.35 -212.46 68.88 -209.42 67.46 C-207.62 66.46 -205.82 65.45 -204.03 64.43 C-202.22 63.46 -200.42 62.49 -198.61 61.52 C-196.67 60.47 -194.73 59.42 -192.79 58.37 C-191.86 57.87 -190.93 57.37 -189.98 56.85 C-186.72 55.08 -183.51 53.25 -180.3 51.4 C-173.1 47.25 -165.81 43.26 -158.52 39.26 C-147.31 33.11 -136.14 26.89 -125.05 20.52 C-120.09 17.69 -115.08 14.92 -110.08 12.17 C-106.69 10.3 -103.35 8.41 -100.04 6.4 C-92.57 1.85 -84.9 -1.58 -76.8 -4.85 C-75.76 -5.27 -74.72 -5.7 -73.65 -6.13 C-48.65 -15.96 -21.85 -17.82 0 0 Z " fill="#FFFFFF" transform="translate(933.421875,522.541015625)"/>
<path d="M0 0 C51.8 -1.44 51.8 -1.44 68.82 7.07 C68.25 11.75 66.94 15.36 64.87 19.58 C64.57 20.19 64.28 20.79 63.97 21.42 C63.03 23.35 62.08 25.27 61.13 27.2 C60.51 28.46 59.89 29.73 59.27 31 C58.05 33.49 56.83 35.98 55.59 38.47 C54.42 40.83 53.28 43.21 52.16 45.6 C51.91 46.14 51.91 46.14 50.61 48.88 C50.16 49.83 49.72 50.79 49.26 51.77 C47.66 54.32 46.66 55.14 43.82 56.07 C41.17 55.68 41.17 55.68 38 54.82 C-1.14 45.72 -45.77 52.54 -80.31 73.07 C-95.87 83.26 -107.19 95 -112.56 113.2 C-114.54 125.46 -112.82 137.12 -105.97 147.63 C-87.5 172.8 -55.26 186.44 -25.12 191.38 C-14.02 192.73 -2.99 193.31 8.19 193.32 C8.54 193.32 8.54 193.32 10.31 193.32 C28.84 193.29 46.26 191.12 63.82 185.07 C64.15 184.96 64.15 184.96 65.85 184.39 C79.03 179.92 91.05 173.94 102.44 165.95 C103.01 165.55 103.58 165.15 104.16 164.75 C107.03 162.67 109.38 160.51 111.59 157.77 C112.32 156.88 113.06 155.99 113.82 155.07 C114.48 155.07 115.14 155.07 115.82 155.07 C115.95 154.7 115.95 154.7 116.64 152.83 C117.76 150.2 119.01 148.24 120.69 145.95 C126.57 137.23 128.32 128.32 129.42 118.06 C129.82 115.07 129.82 115.07 130.82 114.07 C137.75 113.68 144.71 114.09 151.62 114.54 C160.09 115.07 168.56 115.36 177.04 115.57 C179.41 115.63 181.78 115.7 184.15 115.76 C185.68 115.81 187.22 115.85 188.76 115.89 C189.45 115.91 190.14 115.92 190.86 115.94 C194.28 116.03 197.68 116.06 201.1 116.02 C204.79 116.07 207.41 116.71 210.82 118.07 C210.45 140.29 203.85 161.39 188.82 178.07 C187.98 179.04 187.15 180 186.29 180.99 C174.54 194.39 160.39 204.9 144.94 213.7 C144.35 214.03 143.77 214.37 143.16 214.71 C131.14 221.39 118.69 226.46 105.63 230.7 C104.91 230.93 104.19 231.17 103.44 231.41 C81.65 238.53 60.59 242.62 37.82 245.07 C36.85 245.18 35.88 245.28 34.88 245.39 C25.52 246.3 16.15 246.31 6.75 246.32 C5.87 246.32 4.99 246.32 4.08 246.32 C-11.19 246.3 -26.08 245.47 -41.18 243.07 C-42.25 242.9 -43.31 242.74 -44.4 242.57 C-93.42 234.63 -142.52 215.96 -176.18 178.07 C-176.18 177.41 -176.18 176.75 -176.18 176.07 C-176.84 176.07 -177.5 176.07 -178.18 176.07 C-192.65 156.51 -198.21 135.26 -195.79 111.14 C-194.15 101.11 -190.15 92.81 -185.18 84.07 C-184.63 83.07 -184.07 82.07 -183.49 81.04 C-178.99 73.49 -173.25 67.35 -167.18 61.07 C-166.5 60.34 -165.82 59.61 -165.12 58.85 C-159.71 53.17 -153.58 48.58 -147.18 44.07 C-146.6 43.66 -146.01 43.24 -145.4 42.81 C-136.71 36.71 -127.87 31.48 -118.18 27.07 C-117.33 26.68 -116.48 26.29 -115.6 25.88 C-104 20.57 -92.54 15.87 -80.19 12.62 C-78.15 12.06 -76.12 11.44 -74.1 10.81 C-49.94 3.23 -25.19 0.82 0 0 Z " fill="#FFFFFF" transform="translate(572.18359375,152.92919921875)"/>
<path d="M0 0 C8.97 7.89 11.25 18.15 12.22 29.62 C12.99 51.7 4.45 73.56 -10 90 C-10.63 90.73 -11.26 91.45 -11.91 92.2 C-24.18 105.37 -40.67 113.95 -56.26 122.5 C-58.75 123.86 -61.22 125.24 -63.7 126.62 C-68.12 129.1 -72.56 131.55 -77 134 C-77.96 134.53 -78.91 135.05 -79.89 135.59 C-82.95 137.27 -86.01 138.95 -89.06 140.62 C-90.03 141.16 -91.01 141.69 -92.01 142.24 C-92.9 142.73 -93.8 143.22 -94.72 143.73 C-95.52 144.17 -96.33 144.6 -97.15 145.06 C-99 146 -99 146 -100 146 C-101.13 136.53 -101.15 127.09 -101.13 117.57 C-101.13 115.88 -101.13 114.2 -101.14 112.51 C-101.14 108.99 -101.14 105.47 -101.13 101.94 C-101.13 98.37 -101.13 94.8 -101.13 91.23 C-101.17 57.57 -101.17 57.57 -100.73 44.75 C-100.72 43.98 -100.7 43.2 -100.68 42.41 C-100.53 39.18 -100.29 37.35 -98.22 34.8 C-95.62 33.05 -92.93 32.12 -90 31 C-86.89 29.39 -83.86 27.66 -80.81 25.94 C-79.06 24.98 -77.31 24.02 -75.56 23.07 C-70.76 20.43 -66 17.72 -61.25 14.99 C-16.41 -10.68 -16.41 -10.68 0 0 Z " fill="#509F50" transform="translate(879,586)"/>
</svg>
